<svg width="32" height="32" viewBox="0 0 32 32" fill="none" xmlns="http://www.w3.org/2000/svg">
<path d="M16.0034 31.8217C11.6984 31.8217 11.1909 31.7989 9.51092 31.7254C8.20081 31.6824 6.90767 31.416 5.68717 30.9379C4.64273 30.5315 3.69423 29.9123 2.9019 29.1196C2.10957 28.327 1.49073 27.3783 1.08467 26.3337C0.624954 25.1087 0.376999 23.8145 0.351418 22.5064C0.253418 20.8299 0.253418 20.2804 0.253418 16.0087C0.253418 11.6914 0.276168 11.1874 0.351418 9.51617C0.377559 8.20983 0.625505 6.91743 1.08467 5.69417C1.49026 4.64826 2.10952 3.69843 2.90291 2.90535C3.69629 2.11226 4.64635 1.49336 5.69242 1.08817C6.91504 0.626521 8.20777 0.377919 9.51442 0.353167C11.1857 0.258667 11.7352 0.258667 16.0034 0.258667C20.3434 0.258667 20.8422 0.281417 22.4959 0.353167C23.8049 0.377667 25.1034 0.626167 26.3284 1.08817C27.3742 1.49383 28.324 2.1129 29.1174 2.90592C29.9107 3.69894 30.5301 4.64853 30.9362 5.69417C31.4034 6.93667 31.6537 8.24917 31.6729 9.57392C31.7709 11.2504 31.7709 11.7982 31.7709 16.0682C31.7709 20.3382 31.7464 20.8982 31.6729 22.5554C31.6468 23.8648 31.3982 25.1601 30.9379 26.3862C30.5308 27.4315 29.9108 28.3807 29.1173 29.1737C28.3238 29.9666 27.374 30.5859 26.3284 30.9922C25.1034 31.4507 23.8102 31.6992 22.5029 31.7254C20.8317 31.8217 20.2839 31.8217 16.0034 31.8217ZM15.9439 3.02892C11.6634 3.02892 11.2189 3.04992 9.54767 3.12517C8.54955 3.13822 7.56107 3.3223 6.62517 3.66942C5.94255 3.93107 5.32233 4.33286 4.8045 4.84888C4.28666 5.36491 3.88271 5.98372 3.61867 6.66542C3.26867 7.61042 3.08492 8.60967 3.07442 9.61767C2.98167 11.3134 2.98167 11.7579 2.98167 16.0087C2.98167 20.2087 2.99742 20.7179 3.07442 22.4032C3.09017 23.4007 3.27392 24.3894 3.61867 25.3257C4.15417 26.7029 5.24617 27.7914 6.62692 28.3199C7.56161 28.6692 8.5499 28.8534 9.54767 28.8642C11.2417 28.9622 11.6879 28.9622 15.9439 28.9622C20.2367 28.9622 20.6812 28.9412 22.3384 28.8642C23.3366 28.8521 24.3253 28.668 25.2609 28.3199C25.9399 28.0563 26.5566 27.6542 27.0718 27.1393C27.587 26.6244 27.9894 26.008 28.2534 25.3292C28.6034 24.3842 28.7872 23.3832 28.7977 22.3752H28.8169C28.8922 20.7022 28.8922 20.2559 28.8922 15.9807C28.8922 11.7054 28.8729 11.2557 28.7977 9.58442C28.7818 8.58772 28.5978 7.60085 28.2534 6.66542C27.99 5.98562 27.5878 5.36815 27.0726 4.85233C26.5574 4.33651 25.9404 3.93365 25.2609 3.66942C24.3247 3.31942 23.3359 3.13742 22.3384 3.12517C20.6462 3.02892 20.2034 3.02892 15.9439 3.02892ZM16.0034 24.0919C14.4032 24.093 12.8386 23.6194 11.5075 22.7311C10.1764 21.8429 9.13861 20.5798 8.52543 19.1017C7.91224 17.6236 7.75117 15.9969 8.0626 14.4272C8.37403 12.8575 9.14396 11.4155 10.275 10.2835C11.4061 9.15144 12.8475 8.38026 14.4168 8.06747C15.9862 7.75468 17.6131 7.91434 19.0917 8.52625C20.5704 9.13816 21.8343 10.1748 22.7237 11.5051C23.6132 12.8355 24.0881 14.3997 24.0884 15.9999C24.0856 18.144 23.2332 20.1995 21.7177 21.7163C20.2023 23.233 18.1475 24.0873 16.0034 24.0919ZM16.0034 10.7464C14.9651 10.7464 13.95 11.0543 13.0867 11.6312C12.2233 12.2081 11.5504 13.028 11.153 13.9873C10.7557 14.9466 10.6517 16.0022 10.8543 17.0206C11.0569 18.039 11.5569 18.9745 12.2911 19.7087C13.0253 20.443 13.9608 20.943 14.9792 21.1455C15.9976 21.3481 17.0532 21.2441 18.0125 20.8468C18.9718 20.4494 19.7918 19.7765 20.3686 18.9132C20.9455 18.0498 21.2534 17.0348 21.2534 15.9964C21.2502 14.605 20.696 13.2715 19.7122 12.2877C18.7283 11.3038 17.3948 10.7497 16.0034 10.7464ZM24.4034 9.49867C24.1557 9.49775 23.9105 9.44804 23.682 9.35239C23.4535 9.25673 23.246 9.117 23.0715 8.94117C22.719 8.58607 22.5221 8.1055 22.5239 7.60517C22.5258 7.10484 22.7263 6.62573 23.0814 6.27326C23.4365 5.92078 23.9171 5.72381 24.4174 5.72567C24.9177 5.72752 25.3968 5.92806 25.7493 6.28316C26.1018 6.63826 26.2988 7.11884 26.2969 7.61917C26.2951 8.1195 26.0945 8.5986 25.7394 8.95107C25.3843 9.30355 24.9037 9.50052 24.4034 9.49867Z" fill="white"/>
</svg>
