<svg width="28" height="36" viewBox="0 0 28 36" fill="none" xmlns="http://www.w3.org/2000/svg">
<path d="M11.6724 23.4197C10.7869 28.1902 9.70892 32.7647 6.50992 35.1535C5.52467 27.9435 7.96067 22.5272 9.09117 16.7785C7.16267 13.436 9.32392 6.70721 13.3909 8.36446C18.3959 10.405 9.05617 20.793 15.3264 22.0915C21.8732 23.446 24.5472 10.3962 20.4872 6.15071C14.6212 0.0239616 3.41242 6.01246 4.79142 14.7852C5.12742 16.9307 7.27817 17.5817 5.65067 20.5427C1.89692 19.6835 0.776921 16.635 0.922171 12.5697C1.15317 5.91971 6.72692 1.26121 12.3164 0.617211C19.3864 -0.198289 26.0207 3.28946 26.9359 10.1372C27.9684 17.8652 23.7457 26.2372 16.1874 25.6335C14.1382 25.4707 13.2772 24.426 11.6724 23.4197Z" fill="white"/>
</svg>
